<svg width="16" height="16" viewBox="0 0 16 16" fill="none" xmlns="http://www.w3.org/2000/svg">
<path d="M8.00001 1.33337C4.32001 1.33337 1.33334 4.32004 1.33334 8.00004C1.33334 11.68 4.32001 14.6667 8.00001 14.6667C11.68 14.6667 14.6667 11.68 14.6667 8.00004C14.6667 4.32004 11.68 1.33337 8.00001 1.33337ZM8.00001 13.3334C5.05334 13.3334 2.66668 10.9467 2.66668 8.00004C2.66668 6.76671 3.08668 5.63337 3.79334 4.73337L11.2667 12.2067C10.3667 12.9134 9.23334 13.3334 8.00001 13.3334ZM12.2067 11.2667L4.73334 3.79337C5.63334 3.08671 6.76668 2.66671 8.00001 2.66671C10.9467 2.66671 13.3333 5.05337 13.3333 8.00004C13.3333 9.23337 12.9133 10.3667 12.2067 11.2667Z" fill="#014D91"/>
</svg>
