<svg width="14" height="18" viewBox="0 0 14 18" fill="none" xmlns="http://www.w3.org/2000/svg">
<path d="M1.5618e-07 2.25V17.4375C-7.39594e-05 17.5352 0.0262319 17.6312 0.0763287 17.7161C0.126425 17.801 0.198586 17.8718 0.285707 17.9217C0.372828 17.9715 0.471906 17.9986 0.573189 18.0003C0.674472 18.002 0.774468 17.9783 0.863333 17.9314L7 14.7026L13.1367 17.9314C13.2255 17.9783 13.3255 18.002 13.4268 18.0003C13.5281 17.9986 13.6272 17.9715 13.7143 17.9217C13.8014 17.8718 13.8736 17.801 13.9237 17.7161C13.9738 17.6312 14.0001 17.5352 14 17.4375V2.25C14 1.65326 13.7542 1.08097 13.3166 0.65901C12.879 0.237053 12.2855 0 11.6667 0L2.33333 0C1.7145 0 1.121 0.237053 0.683417 0.65901C0.245833 1.08097 1.5618e-07 1.65326 1.5618e-07 2.25Z" fill="#014D91"/>
</svg>
