<svg width="24" height="24" viewBox="0 0 24 24" fill="none" xmlns="http://www.w3.org/2000/svg">
<path fill-rule="evenodd" clip-rule="evenodd" d="M12 1C5.925 1 1 5.925 1 12C1 18.075 5.925 23 12 23C18.075 23 23 18.075 23 12C23 5.925 18.075 1 12 1ZM14.207 8.707C14.3892 8.5184 14.49 8.2658 14.4877 8.0036C14.4854 7.7414 14.3802 7.49059 14.1948 7.30518C14.0094 7.11977 13.7586 7.0146 13.4964 7.01233C13.2342 7.01005 12.9816 7.11084 12.793 7.293L8.793 11.293C8.60553 11.4805 8.50021 11.7348 8.50021 12C8.50021 12.2652 8.60553 12.5195 8.793 12.707L12.793 16.707C12.9816 16.8892 13.2342 16.99 13.4964 16.9877C13.7586 16.9854 14.0094 16.8802 14.1948 16.6948C14.3802 16.5094 14.4854 16.2586 14.4877 15.9964C14.49 15.7342 14.3892 15.4816 14.207 15.293L10.914 12L14.207 8.707Z" fill="#777777"/>
</svg>
