<svg width="16" height="16" viewBox="0 0 16 16" fill="none" xmlns="http://www.w3.org/2000/svg">
<path fill-rule="evenodd" clip-rule="evenodd" d="M7.99996 0.666626C3.94996 0.666626 0.666626 3.94996 0.666626 7.99996C0.666626 12.05 3.94996 15.3333 7.99996 15.3333C12.05 15.3333 15.3333 12.05 15.3333 7.99996C15.3333 3.94996 12.05 0.666626 7.99996 0.666626ZM10.4713 6.47129C10.5927 6.34556 10.6599 6.17716 10.6584 6.00236C10.6569 5.82756 10.5868 5.66035 10.4632 5.53675C10.3396 5.41314 10.1724 5.34303 9.99756 5.34151C9.82276 5.33999 9.65436 5.40719 9.52863 5.52863L7.99996 7.05729L6.47129 5.52863C6.40979 5.46495 6.33623 5.41416 6.2549 5.37922C6.17356 5.34429 6.08608 5.3259 5.99756 5.32513C5.90904 5.32436 5.82125 5.34122 5.73932 5.37475C5.65739 5.40827 5.58296 5.45777 5.52036 5.52036C5.45777 5.58296 5.40827 5.65739 5.37475 5.73932C5.34122 5.82125 5.32436 5.90904 5.32513 5.99756C5.3259 6.08608 5.34429 6.17356 5.37922 6.2549C5.41416 6.33623 5.46495 6.40979 5.52863 6.47129L7.05729 7.99996L5.52863 9.52863C5.46495 9.59012 5.41416 9.66369 5.37922 9.74502C5.34429 9.82636 5.3259 9.91384 5.32513 10.0024C5.32436 10.0909 5.34122 10.1787 5.37475 10.2606C5.40827 10.3425 5.45777 10.417 5.52036 10.4796C5.58296 10.5422 5.65739 10.5917 5.73932 10.6252C5.82125 10.6587 5.90904 10.6756 5.99756 10.6748C6.08608 10.674 6.17356 10.6556 6.2549 10.6207C6.33623 10.5858 6.40979 10.535 6.47129 10.4713L7.99996 8.94263L9.52863 10.4713C9.65436 10.5927 9.82276 10.6599 9.99756 10.6584C10.1724 10.6569 10.3396 10.5868 10.4632 10.4632C10.5868 10.3396 10.6569 10.1724 10.6584 9.99756C10.6599 9.82276 10.5927 9.65436 10.4713 9.52863L8.94263 7.99996L10.4713 6.47129Z" fill="#014D91"/>
</svg>
