<svg width="150" height="150" viewBox="0 0 150 150" fill="none" xmlns="http://www.w3.org/2000/svg">
<path d="M56.2687 51.5625C56.2687 55.2921 54.7872 58.869 52.1499 61.5062C49.5127 64.1434 45.9358 65.625 42.2062 65.625C38.4766 65.625 34.8998 64.1434 32.2625 61.5062C29.6253 58.869 28.1437 55.2921 28.1437 51.5625C28.1437 47.8329 29.6253 44.256 32.2625 41.6188C34.8998 38.9816 38.4766 37.5 42.2062 37.5C45.9358 37.5 49.5127 38.9816 52.1499 41.6188C54.7872 44.256 56.2687 47.8329 56.2687 51.5625V51.5625Z" fill="#BABABA"/>
<path d="M14.0625 18.75C10.3329 18.75 6.75604 20.2316 4.11881 22.8688C1.48158 25.506 0 29.0829 0 32.8125L0 117.188C0 120.917 1.48158 124.494 4.11881 127.131C6.75604 129.768 10.3329 131.25 14.0625 131.25H135.938C139.667 131.25 143.244 129.768 145.881 127.131C148.518 124.494 150 120.917 150 117.188V32.8125C150 29.0829 148.518 25.506 145.881 22.8688C143.244 20.2316 139.667 18.75 135.938 18.75H14.0625ZM135.938 28.125C137.181 28.125 138.373 28.6189 139.252 29.4979C140.131 30.377 140.625 31.5693 140.625 32.8125V89.0625L105.234 70.8094C104.355 70.369 103.36 70.2162 102.389 70.3727C101.418 70.5291 100.521 70.9869 99.825 71.6812L65.0438 106.462L40.1062 89.85C39.2059 89.2506 38.1259 88.9809 37.0494 89.0869C35.973 89.1928 34.9662 89.6678 34.2 90.4312L9.39375 112.5V117.562C9.38254 117.438 9.37629 117.313 9.375 117.188V32.8125C9.375 31.5693 9.86886 30.377 10.7479 29.4979C11.627 28.6189 12.8193 28.125 14.0625 28.125H135.938Z" fill="#BABABA"/>
</svg>
