<svg width="16" height="16" viewBox="0 0 16 16" fill="none" xmlns="http://www.w3.org/2000/svg">
<path d="M11.6594 0.78033C12.5375 -0.0983262 13.9625 -0.0983262 14.8406 0.78033L15.2188 1.15908C16.0969 2.03783 16.0969 3.46252 15.2188 4.34064L9.05625 10.5063C8.78438 10.775 8.45 10.9719 8.08125 11.0781L4.95625 11.9719C4.69375 12.0469 4.4125 11.9719 4.21875 11.7531C4.02813 11.5875 3.95313 11.3063 4.02813 11.0438L4.92188 7.91877C5.02813 7.55002 5.225 7.21564 5.49375 6.94377L11.6594 0.78033ZM13.7531 1.84096C13.4875 1.54814 13.0125 1.54814 12.7188 1.84096L11.8094 2.75002L13.25 4.19064L14.1594 3.25314C14.4531 2.98752 14.4531 2.51252 14.1594 2.21971L13.7531 1.84096ZM6.36563 8.33127L5.84063 10.1594L7.66875 9.63439C7.79375 9.60002 7.90313 9.53439 7.99375 9.44377L12.1906 5.25002L10.75 3.80939L6.55625 8.00627C6.46563 8.09689 6.4 8.20627 6.36563 8.33127ZM6.25 2.00002C6.66563 2.00002 7 2.33596 7 2.75002C7 3.16564 6.66563 3.50002 6.25 3.50002H2.75C2.05969 3.50002 1.5 4.05939 1.5 4.75002V13.25C1.5 13.9406 2.05969 14.5 2.75 14.5H11.25C11.9406 14.5 12.5 13.9406 12.5 13.25V9.75002C12.5 9.33439 12.8344 9.00002 13.25 9.00002C13.6656 9.00002 14 9.33439 14 9.75002V13.25C14 14.7688 12.7688 16 11.25 16H2.75C1.23125 16 0 14.7688 0 13.25V4.75002C0 3.23127 1.23125 2.00002 2.75 2.00002H6.25Z" fill="#014D91"/>
</svg>
