<svg width="16" height="16" viewBox="0 0 16 16" fill="none" xmlns="http://www.w3.org/2000/svg">
<path d="M5.38204 8.12935L2.80804 5.55535C1.79471 6.66002 1.41071 7.76669 1.40404 7.78935L1.33337 8.00002L1.40337 8.21069C1.41804 8.25535 2.94737 12.6667 8.03604 12.6667C8.65537 12.6667 9.21937 12.5987 9.73737 12.4847L7.90671 10.654C7.24756 10.6217 6.62401 10.3453 6.15736 9.8787C5.69072 9.41205 5.41435 8.7885 5.38204 8.12935ZM8.03604 3.33335C6.79937 3.33335 5.78604 3.60269 4.94137 3.99869L2.47137 1.52869L1.52871 2.47135L13.5287 14.4714L14.4714 13.5287L12.2727 11.33C14.0314 10.028 14.6587 8.23869 14.668 8.21069L14.738 8.00002L14.668 7.78935C14.6534 7.74469 13.1247 3.33335 8.03604 3.33335ZM9.30671 8.36402C9.43137 7.91269 9.32537 7.40469 8.97871 7.05735C8.63204 6.71002 8.12337 6.60469 7.67204 6.72935L6.66671 5.72402C7.07868 5.47067 7.55241 5.33552 8.03604 5.33335C9.50671 5.33335 10.7027 6.52935 10.7027 8.00002C10.7007 8.48357 10.5653 8.95718 10.3114 9.36869L9.30671 8.36402Z" fill="#014D91"/>
</svg>
