<svg width="16" height="16" viewBox="0 0 16 16" fill="none" xmlns="http://www.w3.org/2000/svg">
<path d="M8 2.96606C10.7564 2.96606 13.2145 4.74569 14.4145 7.56136C13.9855 8.58068 13.3818 9.45796 12.6618 10.1681L13.6873 11.3462C14.6982 10.3185 15.4982 9.03185 16 7.56136C14.7418 3.89347 11.6364 1.29504 8 1.29504C7.07636 1.29504 6.18909 1.46214 5.35273 1.77128L6.55273 3.14987C7.02545 3.04125 7.50545 2.96606 8 2.96606ZM7.22182 3.91854L8.72727 5.64804C9.14182 5.85692 9.47636 6.24125 9.65818 6.71749L11.1636 8.447C11.2218 8.16293 11.2655 7.86214 11.2655 7.553C11.2727 5.48094 9.80364 3.80157 8 3.80157C7.73091 3.80157 7.47636 3.84334 7.22182 3.91854ZM0.734545 1.18642L2.68364 3.42559C1.49818 4.49504 0.56 5.91541 0 7.56136C1.25818 11.2292 4.36364 13.8277 8 13.8277C9.10545 13.8277 10.1673 13.5854 11.1418 13.1426L13.6291 16L14.6545 14.8219L1.76 0L0.734545 1.18642ZM6.18909 7.45274L8.08727 9.63342C8.05818 9.64178 8.02909 9.65013 8 9.65013C6.99636 9.65013 6.18182 8.71436 6.18182 7.56136C6.18182 7.51958 6.18909 7.49452 6.18909 7.45274ZM3.71636 4.61201L4.98909 6.07415C4.82182 6.53368 4.72727 7.03499 4.72727 7.56136C4.72727 9.63342 6.19636 11.3211 8 11.3211C8.45818 11.3211 8.89455 11.2125 9.28727 11.0204L10 11.8392C9.36 12.0397 8.69091 12.1567 8 12.1567C5.24364 12.1567 2.78545 10.377 1.58545 7.56136C2.09455 6.36658 2.83636 5.38068 3.71636 4.61201Z" fill="#014D91"/>
</svg>
