<svg width="24" height="24" viewBox="0 0 24 24" fill="none" xmlns="http://www.w3.org/2000/svg">
<path d="M4 21H5V8H4C3.46957 8 2.96086 8.21071 2.58579 8.58579C2.21071 8.96086 2 9.46957 2 10V19C2 19.5304 2.21071 20.0391 2.58579 20.4142C2.96086 20.7893 3.46957 21 4 21ZM20 8H13L14.122 4.632C14.2221 4.33141 14.2494 4.01135 14.2016 3.69815C14.1538 3.38496 14.0322 3.08761 13.847 2.83059C13.6617 2.57358 13.4181 2.36424 13.1361 2.21984C12.8541 2.07543 12.5418 2.00008 12.225 2H12L7 7.438V21H18L21.912 12.404L22 12V10C22 9.46957 21.7893 8.96086 21.4142 8.58579C21.0391 8.21071 20.5304 8 20 8V8Z" fill="#014D91"/>
</svg>
