<svg width="12" height="12" viewBox="0 0 12 12" fill="none" xmlns="http://www.w3.org/2000/svg">
<path d="M6 6.5C6.82843 6.5 7.5 5.82843 7.5 5C7.5 4.17157 6.82843 3.5 6 3.5C5.17157 3.5 4.5 4.17157 4.5 5C4.5 5.82843 5.17157 6.5 6 6.5Z" stroke="#777777" stroke-linecap="round" stroke-linejoin="round"/>
<path d="M6 1C4.93913 1 3.92172 1.42143 3.17157 2.17157C2.42143 2.92172 2 3.93913 2 5C2 5.946 2.201 6.565 2.75 7.25L6 11L9.25 7.25C9.799 6.565 10 5.946 10 5C10 3.93913 9.57857 2.92172 8.82843 2.17157C8.07828 1.42143 7.06087 1 6 1V1Z" stroke="#777777" stroke-linecap="round" stroke-linejoin="round"/>
</svg>
