<svg width="16" height="16" viewBox="0 0 16 16" fill="none" xmlns="http://www.w3.org/2000/svg">
<path d="M10.8601 7.14001C10.9217 7.07821 10.995 7.02918 11.0756 6.99573C11.1563 6.96227 11.2427 6.94505 11.3301 6.94505C11.4174 6.94505 11.5038 6.96227 11.5845 6.99573C11.6651 7.02918 11.7384 7.07821 11.8001 7.14001L13.5267 8.86668C13.5885 8.92836 13.6376 9.00162 13.671 9.08226C13.7045 9.16291 13.7217 9.24937 13.7217 9.33668C13.7217 9.42399 13.7045 9.51045 13.671 9.5911C13.6376 9.67175 13.5885 9.745 13.5267 9.80668L11.8001 11.5333C11.7383 11.5951 11.6651 11.644 11.5844 11.6774C11.5038 11.7108 11.4173 11.728 11.3301 11.728C11.2428 11.728 11.1563 11.7108 11.0757 11.6774C10.995 11.644 10.9218 11.5951 10.8601 11.5333C10.7983 11.4716 10.7494 11.3984 10.716 11.3177C10.6826 11.2371 10.6654 11.1506 10.6654 11.0633C10.6654 10.9761 10.6826 10.8896 10.716 10.809C10.7494 10.7283 10.7983 10.6551 10.8601 10.5933L11.4467 10H6.00005C5.26672 10 4.66672 9.40001 4.66672 8.66668L4.66672 3.33335C4.66672 2.96668 4.96672 2.66668 5.33338 2.66668C5.70005 2.66668 6.00005 2.96668 6.00005 3.33335L6.00005 8.66668H11.4467L10.8601 8.08001C10.6001 7.82001 10.6001 7.40001 10.8601 7.14001V7.14001Z" fill="#014D91"/>
</svg>
