<svg width="24" height="24" viewBox="0 0 24 24" fill="none" xmlns="http://www.w3.org/2000/svg">
<path d="M4.00001 21C4.07972 21.0096 4.1603 21.0096 4.24001 21L8.24001 20C8.41746 19.9578 8.57999 19.8679 8.71001 19.74L21 7.41C21.3725 7.03527 21.5816 6.52837 21.5816 5.99999C21.5816 5.47162 21.3725 4.96472 21 4.59L19.42 2.99999C19.2343 2.81404 19.0137 2.66652 18.7709 2.56588C18.5281 2.46523 18.2678 2.41342 18.005 2.41342C17.7422 2.41342 17.4819 2.46523 17.2391 2.56588C16.9963 2.66652 16.7758 2.81404 16.59 2.99999L4.30001 15.29C4.1708 15.4206 4.07776 15.5826 4.03001 15.76L3.03001 19.76C2.99407 19.8894 2.98456 20.0247 3.00204 20.1578C3.01953 20.291 3.06365 20.4192 3.13177 20.535C3.1999 20.6507 3.29064 20.7515 3.39858 20.8314C3.50651 20.9113 3.62944 20.9686 3.76001 21C3.83972 21.0096 3.9203 21.0096 4.00001 21ZM18 4.40999L19.59 5.99999L18 7.59L16.42 5.99999L18 4.40999ZM5.91001 16.51L15 7.41L16.59 9L7.49001 18.1L5.38001 18.62L5.91001 16.51Z" fill="black"/>
</svg>
