<svg width="16" height="16" viewBox="0 0 16 16" fill="none" xmlns="http://www.w3.org/2000/svg">
<path d="M3.33333 13.3334C3.33333 13.687 3.47381 14.0261 3.72386 14.2762C3.97391 14.5262 4.31304 14.6667 4.66667 14.6667H11.3333C11.687 14.6667 12.0261 14.5262 12.2761 14.2762C12.5262 14.0261 12.6667 13.687 12.6667 13.3334V5.33337H14V4.00004H11.3333V2.66671C11.3333 2.31309 11.1929 1.97395 10.9428 1.7239C10.6928 1.47385 10.3536 1.33337 10 1.33337H6C5.64638 1.33337 5.30724 1.47385 5.05719 1.7239C4.80714 1.97395 4.66667 2.31309 4.66667 2.66671V4.00004H2V5.33337H3.33333V13.3334ZM6 2.66671H10V4.00004H6V2.66671ZM5.33333 5.33337H11.3333V13.3334H4.66667V5.33337H5.33333Z" fill="#014D91"/>
<path d="M6 6.66663H7.33333V12H6V6.66663ZM8.66667 6.66663H10V12H8.66667V6.66663Z" fill="#014D91"/>
</svg>
