<svg width="16" height="16" viewBox="0 0 16 16" fill="none" xmlns="http://www.w3.org/2000/svg">
<path d="M2 8C2 9.10267 2.89733 10 4 10C4.52933 10 5.008 9.79 5.366 9.45333L9.36 11.736C9.348 11.8227 9.33333 11.9093 9.33333 12C9.33333 13.1027 10.2307 14 11.3333 14C12.436 14 13.3333 13.1027 13.3333 12C13.3333 10.8973 12.436 10 11.3333 10C10.804 10 10.3253 10.21 9.96733 10.5467L5.97333 8.26467C5.98533 8.17733 6 8.09067 6 8C6 7.90933 5.98533 7.82267 5.97333 7.73533L9.96733 5.45333C10.3253 5.79 10.804 6 11.3333 6C12.436 6 13.3333 5.10267 13.3333 4C13.3333 2.89733 12.436 2 11.3333 2C10.2307 2 9.33333 2.89733 9.33333 4C9.33333 4.09067 9.348 4.17733 9.36 4.26467L5.366 6.54667C4.99734 6.19645 4.50849 6.00082 4 6C2.89733 6 2 6.89733 2 8Z" fill="#014D91"/>
</svg>
